REM DIRINDEX 1\2,1\3
REM DIRNAME folder01,folder02,folder03
TITLE ""
FILE "1901-1920.mp3" MP3
  TRACK 01 AUDIO
    TITLE "0:"
    INDEX 01 00:00:00
  TRACK 02 AUDIO
    TITLE "2:cjc039_2801"
    INDEX 01 00:00:23
  TRACK 03 AUDIO
    TITLE "0:"
    INDEX 01 00:01:28
  TRACK 04 AUDIO
    TITLE "3:cjc039_2802"
    INDEX 01 00:02:06
  TRACK 05 AUDIO
    TITLE "0:"
    INDEX 01 00:05:14
  TRACK 06 AUDIO
    TITLE "2:cjc039_2803"
    INDEX 01 00:06:67
  TRACK 07 AUDIO
    TITLE "0:"
    INDEX 01 00:08:26
  TRACK 08 AUDIO
    TITLE "3:cjc039_2804"
    INDEX 01 00:08:73
  TRACK 09 AUDIO
    TITLE "0:"
    INDEX 01 00:12:40
  TRACK 10 AUDIO
    TITLE "2:cjc039_2805"
    INDEX 01 00:14:15
  TRACK 11 AUDIO
    TITLE "0:"
    INDEX 01 00:15:19
  TRACK 12 AUDIO
    TITLE "3:cjc039_2806"
    INDEX 01 00:15:74
  TRACK 13 AUDIO
    TITLE "0:"
    INDEX 01 00:19:11
  TRACK 14 AUDIO
    TITLE "2:cjc039_2807"
    INDEX 01 00:20:61
  TRACK 15 AUDIO
    TITLE "0:"
    INDEX 01 00:22:27
  TRACK 16 AUDIO
    TITLE "3:cjc039_2808"
    INDEX 01 00:23:04
  TRACK 17 AUDIO
    TITLE "0:"
    INDEX 01 00:26:22
  TRACK 18 AUDIO
    TITLE "2:cjc039_2809"
    INDEX 01 00:27:71
  TRACK 19 AUDIO
    TITLE "0:"
    INDEX 01 00:29:05
  TRACK 20 AUDIO
    TITLE "3:cjc039_2810"
    INDEX 01 00:29:56
  TRACK 21 AUDIO
    TITLE "0:"
    INDEX 01 00:33:32
  TRACK 22 AUDIO
    TITLE "2:cjc039_2811"
    INDEX 01 00:35:14
  TRACK 23 AUDIO
    TITLE "0:"
    INDEX 01 00:36:46
  TRACK 24 AUDIO
    TITLE "3:cjc039_2812"
    INDEX 01 00:37:28
  TRACK 25 AUDIO
    TITLE "0:"
    INDEX 01 00:41:22
  TRACK 26 AUDIO
    TITLE "2:cjc039_2813"
    INDEX 01 00:43:03
  TRACK 27 AUDIO
    TITLE "0:"
    INDEX 01 00:44:11
  TRACK 28 AUDIO
    TITLE "3:cjc039_2814"
    INDEX 01 00:44:67
  TRACK 29 AUDIO
    TITLE "0:"
    INDEX 01 00:48:40
  TRACK 30 AUDIO
    TITLE "2:cjc039_2815"
    INDEX 01 00:50:17
  TRACK 31 AUDIO
    TITLE "0:"
    INDEX 01 00:51:46
  TRACK 32 AUDIO
    TITLE "3:cjc039_2816"
    INDEX 01 00:52:26
  TRACK 33 AUDIO
    TITLE "0:"
    INDEX 01 00:56:41
  TRACK 34 AUDIO
    TITLE "2:cjc039_2817"
    INDEX 01 00:58:18
  TRACK 35 AUDIO
    TITLE "0:"
    INDEX 01 00:59:16
  TRACK 36 AUDIO
    TITLE "3:cjc039_2818"
    INDEX 01 01:00:04
  TRACK 37 AUDIO
    TITLE "0:"
    INDEX 01 01:02:73
  TRACK 38 AUDIO
    TITLE "2:cjc039_2819"
    INDEX 01 01:04:45
  TRACK 39 AUDIO
    TITLE "0:"
    INDEX 01 01:05:62
  TRACK 40 AUDIO
    TITLE "3:cjc039_2820"
    INDEX 01 01:06:36
  TRACK 41 AUDIO
    TITLE "0:"
    INDEX 01 01:09:05
  TRACK 42 AUDIO
    TITLE "2:cjc039_2821"
    INDEX 01 01:10:55
  TRACK 43 AUDIO
    TITLE "0:"
    INDEX 01 01:11:56
  TRACK 44 AUDIO
    TITLE "3:cjc039_2822"
    INDEX 01 01:12:32
  TRACK 45 AUDIO
    TITLE "0:"
    INDEX 01 01:15:64
  TRACK 46 AUDIO
    TITLE "2:cjc039_2823"
    INDEX 01 01:17:45
  TRACK 47 AUDIO
    TITLE "0:"
    INDEX 01 01:19:07
  TRACK 48 AUDIO
    TITLE "3:cjc039_2824"
    INDEX 01 01:19:58
  TRACK 49 AUDIO
    TITLE "0:"
    INDEX 01 01:23:65
  TRACK 50 AUDIO
    TITLE "2:cjc039_2825"
    INDEX 01 01:25:43
  TRACK 51 AUDIO
    TITLE "0:"
    INDEX 01 01:26:34
  TRACK 52 AUDIO
    TITLE "3:cjc039_2826"
    INDEX 01 01:27:14
  TRACK 53 AUDIO
    TITLE "0:"
    INDEX 01 01:29:62
  TRACK 54 AUDIO
    TITLE "2:cjc039_2827"
    INDEX 01 01:31:39
  TRACK 55 AUDIO
    TITLE "0:"
    INDEX 01 01:33:17
  TRACK 56 AUDIO
    TITLE "3:cjc039_2828"
    INDEX 01 01:33:66
  TRACK 57 AUDIO
    TITLE "0:"
    INDEX 01 01:37:52
  TRACK 58 AUDIO
    TITLE "2:cjc039_2829"
    INDEX 01 01:39:27
  TRACK 59 AUDIO
    TITLE "0:"
    INDEX 01 01:40:31
  TRACK 60 AUDIO
    TITLE "3:cjc039_2830"
    INDEX 01 01:41:09
  TRACK 61 AUDIO
    TITLE "0:"
    INDEX 01 01:44:17
  TRACK 62 AUDIO
    TITLE "2:cjc039_2831"
    INDEX 01 01:45:65
  TRACK 63 AUDIO
    TITLE "0:"
    INDEX 01 01:47:25
  TRACK 64 AUDIO
    TITLE "3:cjc039_2832"
    INDEX 01 01:48:03
  TRACK 65 AUDIO
    TITLE "0:"
    INDEX 01 01:52:28
  TRACK 66 AUDIO
    TITLE "2:cjc039_2833"
    INDEX 01 01:54:09
  TRACK 67 AUDIO
    TITLE "0:"
    INDEX 01 01:55:01
  TRACK 68 AUDIO
    TITLE "3:cjc039_2834"
    INDEX 01 01:55:60
  TRACK 69 AUDIO
    TITLE "0:"
    INDEX 01 01:58:17
  TRACK 70 AUDIO
    TITLE "2:cjc039_2835"
    INDEX 01 01:59:67
  TRACK 71 AUDIO
    TITLE "0:"
    INDEX 01 02:01:05
  TRACK 72 AUDIO
    TITLE "3:cjc039_2836"
    INDEX 01 02:01:60
  TRACK 73 AUDIO
    TITLE "0:"
    INDEX 01 02:05:44
  TRACK 74 AUDIO
    TITLE "2:cjc039_2837"
    INDEX 01 02:07:26
  TRACK 75 AUDIO
    TITLE "0:"
    INDEX 01 02:08:25
  TRACK 76 AUDIO
    TITLE "3:cjc039_2838"
    INDEX 01 02:09:07
  TRACK 77 AUDIO
    TITLE "0:"
    INDEX 01 02:11:17
  TRACK 78 AUDIO
    TITLE "2:cjc039_2839"
    INDEX 01 02:12:72
  TRACK 79 AUDIO
    TITLE "0:"
    INDEX 01 02:14:22
  TRACK 80 AUDIO
    TITLE "3:cjc039_2840"
    INDEX 01 02:15:05
  TRACK 81 AUDIO
    TITLE "0:"
    INDEX 01 02:20:11
